<?xml version="1.0" standalone="no"?>
<!DOCTYPE svg PUBLIC "-//W3C//DTD SVG 20010904//EN"
 "http://www.w3.org/TR/2001/REC-SVG-20010904/DTD/svg10.dtd">
<svg version="1.0" xmlns="http://www.w3.org/2000/svg"
 width="512.000000pt" height="512.000000pt" viewBox="0 0 512.000000 512.000000"
 preserveAspectRatio="xMidYMid meet">
<metadata>
Created by potrace 1.14, written by Peter Selinger 2001-2017
</metadata>
<g transform="translate(0.000000,512.000000) scale(0.100000,-0.100000)"
fill="#000000" stroke="none">
<path d="M105 3971 c-48 -22 -69 -44 -90 -94 -12 -30 -15 -91 -15 -358 0 -224
4 -334 12 -362 8 -28 38 -68 91 -125 103 -109 122 -150 122 -267 0 -114 -22
-163 -118 -260 -108 -109 -102 -79 -105 -470 -3 -379 0 -403 62 -450 44 -34
102 -44 241 -45 l120 0 160 -161 160 -161 245 7 c135 4 252 11 260 16 12 7 11
9 -5 9 -19 1 -19 1 -2 14 9 7 17 18 17 24 0 5 24 25 52 43 l53 34 -33 3 c-17
2 -32 6 -32 10 0 4 18 18 39 32 22 13 38 27 35 31 -2 4 19 22 48 40 28 18 46
35 39 37 -6 2 -9 8 -5 13 3 5 629 9 1555 9 1372 0 1554 2 1586 15 50 21 72 42
94 90 17 36 19 71 19 361 0 393 1 389 -103 495 -100 101 -122 149 -122 264 0
117 19 158 122 267 53 57 83 97 91 125 14 48 17 636 2 697 -12 54 -38 87 -90
114 l-44 22 -2211 0 c-2123 0 -2212 -1 -2250 -19z m3626 -140 c23 -19 24 -24
27 -200 l3 -181 -25 -25 c-31 -31 -72 -32 -103 -3 -22 21 -23 26 -23 202 0
171 1 181 22 203 26 28 67 30 99 4z m-264 -213 c28 -26 29 -58 4 -89 l-19 -24
-1517 0 -1517 0 -19 24 c-25 31 -24 59 3 88 l21 23 1511 0 1510 0 23 -22z
m246 -379 c41 -18 47 -49 47 -223 0 -150 -2 -165 -21 -190 -26 -33 -79 -36
-109 -6 -19 19 -20 33 -20 203 0 194 2 202 50 220 23 8 27 8 53 -4z m-2891
-186 c47 -27 80 -79 76 -122 -4 -40 -25 -57 -61 -47 -20 5 -28 14 -33 40 -3
19 -14 42 -24 51 -27 25 -91 30 -128 11 -45 -23 -54 -70 -50 -248 3 -145 3
-148 30 -175 22 -22 36 -27 78 -27 59 -1 85 20 96 79 5 27 12 35 35 40 89 20
75 -117 -16 -171 -114 -66 -275 -22 -305 84 -5 20 -10 112 -10 204 0 131 4
176 16 208 17 42 55 75 102 91 44 14 156 4 194 -18z m458 5 c81 -42 85 -52 88
-274 3 -183 2 -198 -18 -240 -65 -134 -321 -117 -360 24 -13 48 -13 346 0 394
13 45 60 95 103 107 61 17 140 13 187 -11z m277 14 c8 -5 13 -76 15 -244 3
-231 3 -237 26 -261 29 -30 68 -39 116 -26 64 18 66 26 66 284 0 248 1 255 51
255 49 0 51 -10 47 -267 -3 -261 -7 -280 -67 -322 -66 -48 -188 -51 -252 -8
-74 50 -74 51 -77 329 -2 198 0 253 10 259 16 11 49 11 65 1z m715 -2 c134
-38 157 -254 35 -344 -22 -16 -46 -21 -127 -24 l-99 -4 -3 -117 -3 -116 -40 0
-40 0 -3 295 c-1 162 0 300 3 307 6 16 222 18 277 3z m507 -23 c65 -43 73 -80
69 -300 -3 -170 -5 -188 -24 -214 -81 -110 -257 -110 -338 0 -19 26 -21 44
-24 220 -3 183 -2 194 20 237 34 66 91 93 185 87 56 -3 81 -10 112 -30z m273
16 c9 -10 60 -103 114 -208 l99 -189 5 204 c5 224 5 221 66 206 l24 -6 -2
-303 -3 -302 -37 -3 c-44 -4 -41 -8 -174 240 l-89 167 -5 -202 -5 -202 -40 0
-40 0 -3 295 c-1 162 0 300 3 307 7 19 69 16 87 -4z m688 -451 c18 -22 20 -41
20 -193 0 -162 -1 -169 -23 -195 -31 -35 -82 -38 -109 -5 -16 21 -18 43 -18
196 0 95 3 181 6 190 9 21 60 44 86 37 10 -2 27 -16 38 -30z m-4 -593 c16 -18
20 -40 22 -141 3 -77 -1 -130 -8 -148 -22 -53 -104 -60 -129 -11 -6 11 -11 77
-11 150 0 118 2 133 20 151 27 27 81 26 106 -1z m-267 -15 c26 -33 26 -55 2
-85 l-19 -24 -1517 0 -1517 0 -19 24 c-25 31 -24 59 3 88 l21 23 1513 0 1513
0 20 -26z"/>
<path d="M1129 2989 c-47 -17 -54 -47 -54 -225 0 -149 2 -165 21 -190 26 -35
67 -47 117 -33 57 15 67 47 67 222 0 80 -5 158 -11 176 -18 51 -78 73 -140 50z"/>
<path d="M2080 2885 l0 -117 81 4 c74 3 83 6 105 31 34 40 34 124 0 164 -22
25 -31 28 -105 31 l-81 4 0 -117z"/>
<path d="M2598 2985 c-38 -21 -48 -67 -48 -220 0 -152 10 -196 46 -216 42 -22
102 -16 133 15 l26 26 0 169 c0 186 -7 213 -58 231 -40 14 -67 12 -99 -5z"/>
</g>
</svg>
